<mxfile host="" modified="2020-06-20T12:37:12.240Z" agent="5.0 (Macintosh; Intel Mac OS X 10_14_6) AppleWebKit/537.36 (KHTML, like Gecko) Code/1.46.0 Chrome/78.0.3904.130 Electron/7.3.1 Safari/537.36" etag="Y2vSS4vgIuWmq08PbFts" version="13.1.3" pages="3">
    <diagram name="累積和" id="LeWcq2udOYEvuqJlMWBG">
        <mxGraphModel dx="1152" dy="589" grid="1" gridSize="10" guides="1" tooltips="1" connect="1" arrows="1" fold="1" page="1" pageScale="1" pageWidth="827" pageHeight="1169" math="0" shadow="0">
            <root>
                <mxCell id="auqlSFN50E8ZhjRSyr_w-0"/>
                <mxCell id="auqlSFN50E8ZhjRSyr_w-1" parent="auqlSFN50E8ZhjRSyr_w-0"/>
                <mxCell id="auqlSFN50E8ZhjRSyr_w-2" value="4" style="whiteSpace=wrap;html=1;aspect=fixed;" parent="auqlSFN50E8ZhjRSyr_w-1" vertex="1">
                    <mxGeometry x="240" y="280" width="40" height="40" as="geometry"/>
                </mxCell>
                <mxCell id="auqlSFN50E8ZhjRSyr_w-3" value="5" style="whiteSpace=wrap;html=1;aspect=fixed;" parent="auqlSFN50E8ZhjRSyr_w-1" vertex="1">
                    <mxGeometry x="280" y="280" width="40" height="40" as="geometry"/>
                </mxCell>
                <mxCell id="auqlSFN50E8ZhjRSyr_w-4" value="2" style="whiteSpace=wrap;html=1;aspect=fixed;" parent="auqlSFN50E8ZhjRSyr_w-1" vertex="1">
                    <mxGeometry x="320" y="280" width="40" height="40" as="geometry"/>
                </mxCell>
                <mxCell id="auqlSFN50E8ZhjRSyr_w-5" value="1" style="whiteSpace=wrap;html=1;aspect=fixed;" parent="auqlSFN50E8ZhjRSyr_w-1" vertex="1">
                    <mxGeometry x="360" y="280" width="40" height="40" as="geometry"/>
                </mxCell>
                <mxCell id="auqlSFN50E8ZhjRSyr_w-6" value="6" style="whiteSpace=wrap;html=1;aspect=fixed;" parent="auqlSFN50E8ZhjRSyr_w-1" vertex="1">
                    <mxGeometry x="400" y="280" width="40" height="40" as="geometry"/>
                </mxCell>
                <mxCell id="auqlSFN50E8ZhjRSyr_w-7" value="4" style="whiteSpace=wrap;html=1;aspect=fixed;" parent="auqlSFN50E8ZhjRSyr_w-1" vertex="1">
                    <mxGeometry x="440" y="280" width="40" height="40" as="geometry"/>
                </mxCell>
                <mxCell id="auqlSFN50E8ZhjRSyr_w-8" value="2" style="whiteSpace=wrap;html=1;aspect=fixed;" parent="auqlSFN50E8ZhjRSyr_w-1" vertex="1">
                    <mxGeometry x="480" y="280" width="40" height="40" as="geometry"/>
                </mxCell>
                <mxCell id="auqlSFN50E8ZhjRSyr_w-9" value="3" style="whiteSpace=wrap;html=1;aspect=fixed;" parent="auqlSFN50E8ZhjRSyr_w-1" vertex="1">
                    <mxGeometry x="520" y="280" width="40" height="40" as="geometry"/>
                </mxCell>
                <mxCell id="auqlSFN50E8ZhjRSyr_w-10" value="2" style="whiteSpace=wrap;html=1;aspect=fixed;" parent="auqlSFN50E8ZhjRSyr_w-1" vertex="1">
                    <mxGeometry x="560" y="280" width="40" height="40" as="geometry"/>
                </mxCell>
                <mxCell id="auqlSFN50E8ZhjRSyr_w-14" value="4" style="whiteSpace=wrap;html=1;aspect=fixed;" parent="auqlSFN50E8ZhjRSyr_w-1" vertex="1">
                    <mxGeometry x="240" y="360" width="40" height="40" as="geometry"/>
                </mxCell>
                <mxCell id="auqlSFN50E8ZhjRSyr_w-15" value="9" style="whiteSpace=wrap;html=1;aspect=fixed;" parent="auqlSFN50E8ZhjRSyr_w-1" vertex="1">
                    <mxGeometry x="280" y="360" width="40" height="40" as="geometry"/>
                </mxCell>
                <mxCell id="auqlSFN50E8ZhjRSyr_w-17" value="12" style="whiteSpace=wrap;html=1;aspect=fixed;" parent="auqlSFN50E8ZhjRSyr_w-1" vertex="1">
                    <mxGeometry x="360" y="360" width="40" height="40" as="geometry"/>
                </mxCell>
                <mxCell id="auqlSFN50E8ZhjRSyr_w-18" value="18" style="whiteSpace=wrap;html=1;aspect=fixed;" parent="auqlSFN50E8ZhjRSyr_w-1" vertex="1">
                    <mxGeometry x="400" y="360" width="40" height="40" as="geometry"/>
                </mxCell>
                <mxCell id="auqlSFN50E8ZhjRSyr_w-19" value="22" style="whiteSpace=wrap;html=1;aspect=fixed;" parent="auqlSFN50E8ZhjRSyr_w-1" vertex="1">
                    <mxGeometry x="440" y="360" width="40" height="40" as="geometry"/>
                </mxCell>
                <mxCell id="auqlSFN50E8ZhjRSyr_w-20" value="24" style="whiteSpace=wrap;html=1;aspect=fixed;" parent="auqlSFN50E8ZhjRSyr_w-1" vertex="1">
                    <mxGeometry x="480" y="360" width="40" height="40" as="geometry"/>
                </mxCell>
                <mxCell id="auqlSFN50E8ZhjRSyr_w-21" value="27" style="whiteSpace=wrap;html=1;aspect=fixed;" parent="auqlSFN50E8ZhjRSyr_w-1" vertex="1">
                    <mxGeometry x="520" y="360" width="40" height="40" as="geometry"/>
                </mxCell>
                <mxCell id="auqlSFN50E8ZhjRSyr_w-22" value="29" style="whiteSpace=wrap;html=1;aspect=fixed;" parent="auqlSFN50E8ZhjRSyr_w-1" vertex="1">
                    <mxGeometry x="560" y="360" width="40" height="40" as="geometry"/>
                </mxCell>
                <mxCell id="auqlSFN50E8ZhjRSyr_w-23" value="0" style="whiteSpace=wrap;html=1;aspect=fixed;" parent="auqlSFN50E8ZhjRSyr_w-1" vertex="1">
                    <mxGeometry x="200" y="360" width="40" height="40" as="geometry"/>
                </mxCell>
                <mxCell id="auqlSFN50E8ZhjRSyr_w-24" value="w" style="text;html=1;align=center;verticalAlign=middle;resizable=0;points=[];autosize=1;" parent="auqlSFN50E8ZhjRSyr_w-1" vertex="1">
                    <mxGeometry x="130" y="290" width="20" height="20" as="geometry"/>
                </mxCell>
                <mxCell id="auqlSFN50E8ZhjRSyr_w-25" value="s(累積和)" style="text;html=1;align=center;verticalAlign=middle;resizable=0;points=[];autosize=1;" parent="auqlSFN50E8ZhjRSyr_w-1" vertex="1">
                    <mxGeometry x="110" y="370" width="60" height="20" as="geometry"/>
                </mxCell>
                <mxCell id="u9cF9FuQSbxt8TstORCc-0" value="0" style="text;html=1;align=center;verticalAlign=middle;resizable=0;points=[];autosize=1;" parent="auqlSFN50E8ZhjRSyr_w-1" vertex="1">
                    <mxGeometry x="250" y="240" width="20" height="20" as="geometry"/>
                </mxCell>
                <mxCell id="kWirxy5_HwYKTuAaUtwc-0" value="0" style="text;html=1;align=center;verticalAlign=middle;resizable=0;points=[];autosize=1;" parent="auqlSFN50E8ZhjRSyr_w-1" vertex="1">
                    <mxGeometry x="210" y="330" width="20" height="20" as="geometry"/>
                </mxCell>
                <mxCell id="auqlSFN50E8ZhjRSyr_w-16" value="11" style="whiteSpace=wrap;html=1;aspect=fixed;strokeColor=#FFFFFF;" parent="auqlSFN50E8ZhjRSyr_w-1" vertex="1">
                    <mxGeometry x="320" y="360" width="40" height="40" as="geometry"/>
                </mxCell>
                <mxCell id="xh6ZzkCoLZepfSMVRB4V-0" value="" style="rounded=0;whiteSpace=wrap;html=1;strokeColor=#FF3333;fillColor=none;" parent="auqlSFN50E8ZhjRSyr_w-1" vertex="1">
                    <mxGeometry x="280" y="280" width="120" height="40" as="geometry"/>
                </mxCell>
                <mxCell id="xh6ZzkCoLZepfSMVRB4V-3" value="" style="rounded=0;whiteSpace=wrap;html=1;strokeColor=#0066CC;fillColor=none;" parent="auqlSFN50E8ZhjRSyr_w-1" vertex="1">
                    <mxGeometry x="440" y="280" width="120" height="40" as="geometry"/>
                </mxCell>
                <mxCell id="xh6ZzkCoLZepfSMVRB4V-6" value="s[8] - s[5] = 9" style="text;html=1;align=center;verticalAlign=middle;resizable=0;points=[];autosize=1;strokeColor=#007FFF;" parent="auqlSFN50E8ZhjRSyr_w-1" vertex="1">
                    <mxGeometry x="460" y="440" width="80" height="20" as="geometry"/>
                </mxCell>
                <mxCell id="xh6ZzkCoLZepfSMVRB4V-7" value="1" style="text;html=1;align=center;verticalAlign=middle;resizable=0;points=[];autosize=1;" parent="auqlSFN50E8ZhjRSyr_w-1" vertex="1">
                    <mxGeometry x="290" y="240" width="20" height="20" as="geometry"/>
                </mxCell>
                <mxCell id="xh6ZzkCoLZepfSMVRB4V-8" value="2" style="text;html=1;align=center;verticalAlign=middle;resizable=0;points=[];autosize=1;" parent="auqlSFN50E8ZhjRSyr_w-1" vertex="1">
                    <mxGeometry x="330" y="240" width="20" height="20" as="geometry"/>
                </mxCell>
                <mxCell id="xh6ZzkCoLZepfSMVRB4V-9" value="3" style="text;html=1;align=center;verticalAlign=middle;resizable=0;points=[];autosize=1;" parent="auqlSFN50E8ZhjRSyr_w-1" vertex="1">
                    <mxGeometry x="370" y="240" width="20" height="20" as="geometry"/>
                </mxCell>
                <mxCell id="xh6ZzkCoLZepfSMVRB4V-10" value="4" style="text;html=1;align=center;verticalAlign=middle;resizable=0;points=[];autosize=1;" parent="auqlSFN50E8ZhjRSyr_w-1" vertex="1">
                    <mxGeometry x="410" y="240" width="20" height="20" as="geometry"/>
                </mxCell>
                <mxCell id="xh6ZzkCoLZepfSMVRB4V-11" value="5" style="text;html=1;align=center;verticalAlign=middle;resizable=0;points=[];autosize=1;" parent="auqlSFN50E8ZhjRSyr_w-1" vertex="1">
                    <mxGeometry x="450" y="240" width="20" height="20" as="geometry"/>
                </mxCell>
                <mxCell id="xh6ZzkCoLZepfSMVRB4V-12" value="6" style="text;html=1;align=center;verticalAlign=middle;resizable=0;points=[];autosize=1;" parent="auqlSFN50E8ZhjRSyr_w-1" vertex="1">
                    <mxGeometry x="490" y="240" width="20" height="20" as="geometry"/>
                </mxCell>
                <mxCell id="xh6ZzkCoLZepfSMVRB4V-13" value="7" style="text;html=1;align=center;verticalAlign=middle;resizable=0;points=[];autosize=1;" parent="auqlSFN50E8ZhjRSyr_w-1" vertex="1">
                    <mxGeometry x="530" y="240" width="20" height="20" as="geometry"/>
                </mxCell>
                <mxCell id="xh6ZzkCoLZepfSMVRB4V-14" value="8" style="text;html=1;align=center;verticalAlign=middle;resizable=0;points=[];autosize=1;" parent="auqlSFN50E8ZhjRSyr_w-1" vertex="1">
                    <mxGeometry x="570" y="240" width="20" height="20" as="geometry"/>
                </mxCell>
                <mxCell id="xh6ZzkCoLZepfSMVRB4V-15" value="w[5] + w[6] + w[7] = 9" style="text;html=1;align=center;verticalAlign=middle;resizable=0;points=[];autosize=1;strokeColor=#007FFF;" parent="auqlSFN50E8ZhjRSyr_w-1" vertex="1">
                    <mxGeometry x="435" y="420" width="130" height="20" as="geometry"/>
                </mxCell>
                <mxCell id="xh6ZzkCoLZepfSMVRB4V-16" value="w[1] + w[2] + w[3] = 8" style="text;html=1;align=center;verticalAlign=middle;resizable=0;points=[];autosize=1;strokeColor=#FF3333;" parent="auqlSFN50E8ZhjRSyr_w-1" vertex="1">
                    <mxGeometry x="275" y="420" width="130" height="20" as="geometry"/>
                </mxCell>
                <mxCell id="xh6ZzkCoLZepfSMVRB4V-17" value="s[4] - s[1] = 8" style="text;html=1;align=center;verticalAlign=middle;resizable=0;points=[];autosize=1;strokeColor=#FF3333;" parent="auqlSFN50E8ZhjRSyr_w-1" vertex="1">
                    <mxGeometry x="300" y="440" width="80" height="20" as="geometry"/>
                </mxCell>
                <mxCell id="xh6ZzkCoLZepfSMVRB4V-18" value="普通の計算" style="text;html=1;align=center;verticalAlign=middle;resizable=0;points=[];autosize=1;" parent="auqlSFN50E8ZhjRSyr_w-1" vertex="1">
                    <mxGeometry x="180" y="420" width="80" height="20" as="geometry"/>
                </mxCell>
                <mxCell id="xh6ZzkCoLZepfSMVRB4V-21" value="累積和の計算" style="text;html=1;align=center;verticalAlign=middle;resizable=0;points=[];autosize=1;" parent="auqlSFN50E8ZhjRSyr_w-1" vertex="1">
                    <mxGeometry x="175" y="440" width="90" height="20" as="geometry"/>
                </mxCell>
                <mxCell id="xh6ZzkCoLZepfSMVRB4V-23" value="1" style="text;html=1;align=center;verticalAlign=middle;resizable=0;points=[];autosize=1;" parent="auqlSFN50E8ZhjRSyr_w-1" vertex="1">
                    <mxGeometry x="250" y="330" width="20" height="20" as="geometry"/>
                </mxCell>
                <mxCell id="xh6ZzkCoLZepfSMVRB4V-24" value="2" style="text;html=1;align=center;verticalAlign=middle;resizable=0;points=[];autosize=1;" parent="auqlSFN50E8ZhjRSyr_w-1" vertex="1">
                    <mxGeometry x="290" y="330" width="20" height="20" as="geometry"/>
                </mxCell>
                <mxCell id="xh6ZzkCoLZepfSMVRB4V-25" value="3" style="text;html=1;align=center;verticalAlign=middle;resizable=0;points=[];autosize=1;" parent="auqlSFN50E8ZhjRSyr_w-1" vertex="1">
                    <mxGeometry x="330" y="330" width="20" height="20" as="geometry"/>
                </mxCell>
                <mxCell id="xh6ZzkCoLZepfSMVRB4V-26" value="4" style="text;html=1;align=center;verticalAlign=middle;resizable=0;points=[];autosize=1;" parent="auqlSFN50E8ZhjRSyr_w-1" vertex="1">
                    <mxGeometry x="370" y="330" width="20" height="20" as="geometry"/>
                </mxCell>
                <mxCell id="xh6ZzkCoLZepfSMVRB4V-27" value="5" style="text;html=1;align=center;verticalAlign=middle;resizable=0;points=[];autosize=1;" parent="auqlSFN50E8ZhjRSyr_w-1" vertex="1">
                    <mxGeometry x="410" y="330" width="20" height="20" as="geometry"/>
                </mxCell>
                <mxCell id="xh6ZzkCoLZepfSMVRB4V-28" value="6" style="text;html=1;align=center;verticalAlign=middle;resizable=0;points=[];autosize=1;" parent="auqlSFN50E8ZhjRSyr_w-1" vertex="1">
                    <mxGeometry x="450" y="330" width="20" height="20" as="geometry"/>
                </mxCell>
                <mxCell id="xh6ZzkCoLZepfSMVRB4V-29" value="7" style="text;html=1;align=center;verticalAlign=middle;resizable=0;points=[];autosize=1;" parent="auqlSFN50E8ZhjRSyr_w-1" vertex="1">
                    <mxGeometry x="490" y="330" width="20" height="20" as="geometry"/>
                </mxCell>
                <mxCell id="xh6ZzkCoLZepfSMVRB4V-39" value="9" style="text;html=1;align=center;verticalAlign=middle;resizable=0;points=[];autosize=1;" parent="auqlSFN50E8ZhjRSyr_w-1" vertex="1">
                    <mxGeometry x="570" y="330" width="20" height="20" as="geometry"/>
                </mxCell>
                <mxCell id="xh6ZzkCoLZepfSMVRB4V-40" value="8" style="text;html=1;align=center;verticalAlign=middle;resizable=0;points=[];autosize=1;" parent="auqlSFN50E8ZhjRSyr_w-1" vertex="1">
                    <mxGeometry x="530" y="330" width="20" height="20" as="geometry"/>
                </mxCell>
            </root>
        </mxGraphModel>
    </diagram>
    <diagram name="累積和のコピー" id="mfWlNHyPRSnXyfPDw9yG">
        &#xa;        
        <mxGraphModel dx="570" dy="543" grid="1" gridSize="10" guides="1" tooltips="1" connect="1" arrows="1" fold="1" page="1" pageScale="1" pageWidth="827" pageHeight="1169" math="0" shadow="0">
            &#xa;            
            <root>
                &#xa;                
                <mxCell id="bnlORscy65JKHpADpyvl-0"/>
                &#xa;                
                <mxCell id="bnlORscy65JKHpADpyvl-1" parent="bnlORscy65JKHpADpyvl-0"/>
                &#xa;                
                <mxCell id="bnlORscy65JKHpADpyvl-2" value="4" style="whiteSpace=wrap;html=1;aspect=fixed;" vertex="1" parent="bnlORscy65JKHpADpyvl-1">
                    &#xa;                    
                    <mxGeometry x="240" y="280" width="40" height="40" as="geometry"/>
                    &#xa;                
                </mxCell>
                &#xa;                
                <mxCell id="bnlORscy65JKHpADpyvl-3" value="5" style="whiteSpace=wrap;html=1;aspect=fixed;" vertex="1" parent="bnlORscy65JKHpADpyvl-1">
                    &#xa;                    
                    <mxGeometry x="280" y="280" width="40" height="40" as="geometry"/>
                    &#xa;                
                </mxCell>
                &#xa;                
                <mxCell id="bnlORscy65JKHpADpyvl-4" value="2" style="whiteSpace=wrap;html=1;aspect=fixed;" vertex="1" parent="bnlORscy65JKHpADpyvl-1">
                    &#xa;                    
                    <mxGeometry x="320" y="280" width="40" height="40" as="geometry"/>
                    &#xa;                
                </mxCell>
                &#xa;                
                <mxCell id="bnlORscy65JKHpADpyvl-5" value="1" style="whiteSpace=wrap;html=1;aspect=fixed;" vertex="1" parent="bnlORscy65JKHpADpyvl-1">
                    &#xa;                    
                    <mxGeometry x="360" y="280" width="40" height="40" as="geometry"/>
                    &#xa;                
                </mxCell>
                &#xa;                
                <mxCell id="bnlORscy65JKHpADpyvl-71" style="edgeStyle=orthogonalEdgeStyle;rounded=0;orthogonalLoop=1;jettySize=auto;html=1;exitX=0.5;exitY=1;exitDx=0;exitDy=0;entryX=0.5;entryY=0;entryDx=0;entryDy=0;" edge="1" parent="bnlORscy65JKHpADpyvl-1" source="bnlORscy65JKHpADpyvl-6" target="bnlORscy65JKHpADpyvl-54">
                    &#xa;                    
                    <mxGeometry relative="1" as="geometry"/>
                    &#xa;                
                </mxCell>
                &#xa;                
                <mxCell id="bnlORscy65JKHpADpyvl-6" value="6" style="whiteSpace=wrap;html=1;aspect=fixed;" vertex="1" parent="bnlORscy65JKHpADpyvl-1">
                    &#xa;                    
                    <mxGeometry x="400" y="280" width="40" height="40" as="geometry"/>
                    &#xa;                
                </mxCell>
                &#xa;                
                <mxCell id="bnlORscy65JKHpADpyvl-7" value="4" style="whiteSpace=wrap;html=1;aspect=fixed;" vertex="1" parent="bnlORscy65JKHpADpyvl-1">
                    &#xa;                    
                    <mxGeometry x="440" y="280" width="40" height="40" as="geometry"/>
                    &#xa;                
                </mxCell>
                &#xa;                
                <mxCell id="bnlORscy65JKHpADpyvl-8" value="2" style="whiteSpace=wrap;html=1;aspect=fixed;" vertex="1" parent="bnlORscy65JKHpADpyvl-1">
                    &#xa;                    
                    <mxGeometry x="480" y="280" width="40" height="40" as="geometry"/>
                    &#xa;                
                </mxCell>
                &#xa;                
                <mxCell id="bnlORscy65JKHpADpyvl-9" value="3" style="whiteSpace=wrap;html=1;aspect=fixed;" vertex="1" parent="bnlORscy65JKHpADpyvl-1">
                    &#xa;                    
                    <mxGeometry x="520" y="280" width="40" height="40" as="geometry"/>
                    &#xa;                
                </mxCell>
                &#xa;                
                <mxCell id="bnlORscy65JKHpADpyvl-10" value="2" style="whiteSpace=wrap;html=1;aspect=fixed;" vertex="1" parent="bnlORscy65JKHpADpyvl-1">
                    &#xa;                    
                    <mxGeometry x="560" y="280" width="40" height="40" as="geometry"/>
                    &#xa;                
                </mxCell>
                &#xa;                
                <mxCell id="bnlORscy65JKHpADpyvl-20" value="w" style="text;html=1;align=center;verticalAlign=middle;resizable=0;points=[];autosize=1;" vertex="1" parent="bnlORscy65JKHpADpyvl-1">
                    &#xa;                    
                    <mxGeometry x="130" y="290" width="20" height="20" as="geometry"/>
                    &#xa;                
                </mxCell>
                &#xa;                
                <mxCell id="bnlORscy65JKHpADpyvl-22" value="0" style="text;html=1;align=center;verticalAlign=middle;resizable=0;points=[];autosize=1;" vertex="1" parent="bnlORscy65JKHpADpyvl-1">
                    &#xa;                    
                    <mxGeometry x="250" y="240" width="20" height="20" as="geometry"/>
                    &#xa;                
                </mxCell>
                &#xa;                
                <mxCell id="bnlORscy65JKHpADpyvl-28" value="1" style="text;html=1;align=center;verticalAlign=middle;resizable=0;points=[];autosize=1;" vertex="1" parent="bnlORscy65JKHpADpyvl-1">
                    &#xa;                    
                    <mxGeometry x="290" y="240" width="20" height="20" as="geometry"/>
                    &#xa;                
                </mxCell>
                &#xa;                
                <mxCell id="bnlORscy65JKHpADpyvl-29" value="2" style="text;html=1;align=center;verticalAlign=middle;resizable=0;points=[];autosize=1;" vertex="1" parent="bnlORscy65JKHpADpyvl-1">
                    &#xa;                    
                    <mxGeometry x="330" y="240" width="20" height="20" as="geometry"/>
                    &#xa;                
                </mxCell>
                &#xa;                
                <mxCell id="bnlORscy65JKHpADpyvl-30" value="3" style="text;html=1;align=center;verticalAlign=middle;resizable=0;points=[];autosize=1;" vertex="1" parent="bnlORscy65JKHpADpyvl-1">
                    &#xa;                    
                    <mxGeometry x="370" y="240" width="20" height="20" as="geometry"/>
                    &#xa;                
                </mxCell>
                &#xa;                
                <mxCell id="bnlORscy65JKHpADpyvl-31" value="4" style="text;html=1;align=center;verticalAlign=middle;resizable=0;points=[];autosize=1;" vertex="1" parent="bnlORscy65JKHpADpyvl-1">
                    &#xa;                    
                    <mxGeometry x="410" y="240" width="20" height="20" as="geometry"/>
                    &#xa;                
                </mxCell>
                &#xa;                
                <mxCell id="bnlORscy65JKHpADpyvl-32" value="5" style="text;html=1;align=center;verticalAlign=middle;resizable=0;points=[];autosize=1;" vertex="1" parent="bnlORscy65JKHpADpyvl-1">
                    &#xa;                    
                    <mxGeometry x="450" y="240" width="20" height="20" as="geometry"/>
                    &#xa;                
                </mxCell>
                &#xa;                
                <mxCell id="bnlORscy65JKHpADpyvl-33" value="6" style="text;html=1;align=center;verticalAlign=middle;resizable=0;points=[];autosize=1;" vertex="1" parent="bnlORscy65JKHpADpyvl-1">
                    &#xa;                    
                    <mxGeometry x="490" y="240" width="20" height="20" as="geometry"/>
                    &#xa;                
                </mxCell>
                &#xa;                
                <mxCell id="bnlORscy65JKHpADpyvl-34" value="7" style="text;html=1;align=center;verticalAlign=middle;resizable=0;points=[];autosize=1;" vertex="1" parent="bnlORscy65JKHpADpyvl-1">
                    &#xa;                    
                    <mxGeometry x="530" y="240" width="20" height="20" as="geometry"/>
                    &#xa;                
                </mxCell>
                &#xa;                
                <mxCell id="bnlORscy65JKHpADpyvl-35" value="8" style="text;html=1;align=center;verticalAlign=middle;resizable=0;points=[];autosize=1;" vertex="1" parent="bnlORscy65JKHpADpyvl-1">
                    &#xa;                    
                    <mxGeometry x="570" y="240" width="20" height="20" as="geometry"/>
                    &#xa;                
                </mxCell>
                &#xa;                
                <mxCell id="bnlORscy65JKHpADpyvl-50" value="4" style="whiteSpace=wrap;html=1;aspect=fixed;" vertex="1" parent="bnlORscy65JKHpADpyvl-1">
                    &#xa;                    
                    <mxGeometry x="240" y="370" width="40" height="40" as="geometry"/>
                    &#xa;                
                </mxCell>
                &#xa;                
                <mxCell id="bnlORscy65JKHpADpyvl-51" value="9" style="whiteSpace=wrap;html=1;aspect=fixed;" vertex="1" parent="bnlORscy65JKHpADpyvl-1">
                    &#xa;                    
                    <mxGeometry x="280" y="370" width="40" height="40" as="geometry"/>
                    &#xa;                
                </mxCell>
                &#xa;                
                <mxCell id="bnlORscy65JKHpADpyvl-52" value="11" style="whiteSpace=wrap;html=1;aspect=fixed;" vertex="1" parent="bnlORscy65JKHpADpyvl-1">
                    &#xa;                    
                    <mxGeometry x="320" y="370" width="40" height="40" as="geometry"/>
                    &#xa;                
                </mxCell>
                &#xa;                
                <mxCell id="bnlORscy65JKHpADpyvl-53" value="12" style="whiteSpace=wrap;html=1;aspect=fixed;" vertex="1" parent="bnlORscy65JKHpADpyvl-1">
                    &#xa;                    
                    <mxGeometry x="360" y="370" width="40" height="40" as="geometry"/>
                    &#xa;                
                </mxCell>
                &#xa;                
                <mxCell id="bnlORscy65JKHpADpyvl-54" value="18" style="whiteSpace=wrap;html=1;aspect=fixed;" vertex="1" parent="bnlORscy65JKHpADpyvl-1">
                    &#xa;                    
                    <mxGeometry x="400" y="370" width="40" height="40" as="geometry"/>
                    &#xa;                
                </mxCell>
                &#xa;                
                <mxCell id="bnlORscy65JKHpADpyvl-55" value="22" style="whiteSpace=wrap;html=1;aspect=fixed;" vertex="1" parent="bnlORscy65JKHpADpyvl-1">
                    &#xa;                    
                    <mxGeometry x="440" y="370" width="40" height="40" as="geometry"/>
                    &#xa;                
                </mxCell>
                &#xa;                
                <mxCell id="bnlORscy65JKHpADpyvl-56" value="24" style="whiteSpace=wrap;html=1;aspect=fixed;" vertex="1" parent="bnlORscy65JKHpADpyvl-1">
                    &#xa;                    
                    <mxGeometry x="480" y="370" width="40" height="40" as="geometry"/>
                    &#xa;                
                </mxCell>
                &#xa;                
                <mxCell id="bnlORscy65JKHpADpyvl-57" value="27" style="whiteSpace=wrap;html=1;aspect=fixed;" vertex="1" parent="bnlORscy65JKHpADpyvl-1">
                    &#xa;                    
                    <mxGeometry x="520" y="370" width="40" height="40" as="geometry"/>
                    &#xa;                
                </mxCell>
                &#xa;                
                <mxCell id="bnlORscy65JKHpADpyvl-58" value="29" style="whiteSpace=wrap;html=1;aspect=fixed;" vertex="1" parent="bnlORscy65JKHpADpyvl-1">
                    &#xa;                    
                    <mxGeometry x="560" y="370" width="40" height="40" as="geometry"/>
                    &#xa;                
                </mxCell>
                &#xa;                
                <mxCell id="bnlORscy65JKHpADpyvl-59" value="w(累積和)" style="text;html=1;align=center;verticalAlign=middle;resizable=0;points=[];autosize=1;" vertex="1" parent="bnlORscy65JKHpADpyvl-1">
                    &#xa;                    
                    <mxGeometry x="105" y="380" width="70" height="20" as="geometry"/>
                    &#xa;                
                </mxCell>
                &#xa;                
                <mxCell id="bnlORscy65JKHpADpyvl-73" value="w[i+1] = w[i+1] + w[i]" style="text;html=1;align=center;verticalAlign=middle;resizable=0;points=[];autosize=1;" vertex="1" parent="bnlORscy65JKHpADpyvl-1">
                    &#xa;                    
                    <mxGeometry x="360" y="440" width="120" height="20" as="geometry"/>
                    &#xa;                
                </mxCell>
                &#xa;                
                <mxCell id="bnlORscy65JKHpADpyvl-74" value="" style="rounded=0;whiteSpace=wrap;html=1;strokeColor=#FF3333;fillColor=none;" vertex="1" parent="bnlORscy65JKHpADpyvl-1">
                    &#xa;                    
                    <mxGeometry x="400" y="370" width="40" height="40" as="geometry"/>
                    &#xa;                
                </mxCell>
                &#xa;                
                <mxCell id="bnlORscy65JKHpADpyvl-75" value="18 = 6 + 12" style="text;html=1;align=center;verticalAlign=middle;resizable=0;points=[];autosize=1;" vertex="1" parent="bnlORscy65JKHpADpyvl-1">
                    &#xa;                    
                    <mxGeometry x="373" y="470" width="80" height="20" as="geometry"/>
                    &#xa;                
                </mxCell>
                &#xa;            
            </root>
            &#xa;        
        </mxGraphModel>
        &#xa;    
    </diagram>
    <diagram id="Z6BjYUBWi4TIbilqBwfe" name="ページ3">
        <mxGraphModel dx="461" dy="236" grid="1" gridSize="10" guides="1" tooltips="1" connect="1" arrows="1" fold="1" page="1" pageScale="1" pageWidth="827" pageHeight="1169" math="0" shadow="0">
            <root>
                <mxCell id="Ni6AIBF5oOVuSFkllmos-0"/>
                <mxCell id="Ni6AIBF5oOVuSFkllmos-1" parent="Ni6AIBF5oOVuSFkllmos-0"/>
                <mxCell id="Ni6AIBF5oOVuSFkllmos-2" value="" style="ellipse;whiteSpace=wrap;html=1;" vertex="1" parent="Ni6AIBF5oOVuSFkllmos-1">
                    <mxGeometry x="340" y="260" width="40" height="40" as="geometry"/>
                </mxCell>
                <mxCell id="Ni6AIBF5oOVuSFkllmos-5" value="" style="endArrow=classic;html=1;" edge="1" parent="Ni6AIBF5oOVuSFkllmos-1">
                    <mxGeometry width="50" height="50" relative="1" as="geometry">
                        <mxPoint x="360" y="280" as="sourcePoint"/>
                        <mxPoint x="360" y="200" as="targetPoint"/>
                    </mxGeometry>
                </mxCell>
                <mxCell id="Ni6AIBF5oOVuSFkllmos-6" value="" style="endArrow=classic;html=1;entryX=0;entryY=0.25;entryDx=0;entryDy=0;entryPerimeter=0;" edge="1" parent="Ni6AIBF5oOVuSFkllmos-1" target="Ni6AIBF5oOVuSFkllmos-2">
                    <mxGeometry width="50" height="50" relative="1" as="geometry">
                        <mxPoint x="360" y="200" as="sourcePoint"/>
                        <mxPoint x="310" y="220" as="targetPoint"/>
                    </mxGeometry>
                </mxCell>
                <mxCell id="Ni6AIBF5oOVuSFkllmos-7" value="" style="endArrow=classic;html=1;exitX=0.059;exitY=0.228;exitDx=0;exitDy=0;exitPerimeter=0;" edge="1" parent="Ni6AIBF5oOVuSFkllmos-1" source="Ni6AIBF5oOVuSFkllmos-2">
                    <mxGeometry width="50" height="50" relative="1" as="geometry">
                        <mxPoint x="424" y="200" as="sourcePoint"/>
                        <mxPoint x="380" y="210" as="targetPoint"/>
                    </mxGeometry>
                </mxCell>
                <mxCell id="Ni6AIBF5oOVuSFkllmos-8" value="" style="endArrow=classic;html=1;" edge="1" parent="Ni6AIBF5oOVuSFkllmos-1">
                    <mxGeometry width="50" height="50" relative="1" as="geometry">
                        <mxPoint x="380" y="210" as="sourcePoint"/>
                        <mxPoint x="330" y="260" as="targetPoint"/>
                    </mxGeometry>
                </mxCell>
                <mxCell id="Ni6AIBF5oOVuSFkllmos-9" value="" style="endArrow=classic;html=1;" edge="1" parent="Ni6AIBF5oOVuSFkllmos-1">
                    <mxGeometry width="50" height="50" relative="1" as="geometry">
                        <mxPoint x="330" y="260" as="sourcePoint"/>
                        <mxPoint x="390" y="230" as="targetPoint"/>
                    </mxGeometry>
                </mxCell>
            </root>
        </mxGraphModel>
    </diagram>
</mxfile>